<svg width="101" height="19" viewBox="0 0 101 19" fill="none" xmlns="http://www.w3.org/2000/svg">
<path fill-rule="evenodd" clip-rule="evenodd" d="M14.1622 0.339111L8.6052 8.6789L3.02477 0.339111H0.234131V18.3015H3.87637V8.08791L8.6052 15.1453L16.9514 2.64789V0.339111H14.1622ZM13.3091 8.85789V18.3015H16.9514V6.36923L13.3091 8.85789Z" fill="#67A868"/>
<path fill-rule="evenodd" clip-rule="evenodd" d="M19.1489 18.3015H22.5853V5.47119H19.1489V18.3015Z" fill="#67A868"/>
<path fill-rule="evenodd" clip-rule="evenodd" d="M33.0771 11.9374L37.8311 18.3013H33.5935V18.2755L28.8898 11.9632L24.1609 5.47119H28.3485L30.9585 9.83322L33.5935 5.47119H37.8311L37.7791 5.49698L33.0771 11.9374ZM24.1359 18.3013L27.5993 13.6311L30.7505 15.0678L28.3485 18.3013H24.1359Z" fill="#67A868"/>
<path fill-rule="evenodd" clip-rule="evenodd" d="M44.8331 7.6777H48.6313V10.5259H46.4356H46.4105L44.8331 7.6777ZM48.6313 0.339142V3.34122H45.8153C45.367 3.34122 45.023 3.51215 44.7828 3.854C44.5407 4.1967 44.4205 4.66664 44.4205 5.26552V18.3015H40.9826V10.5259H39.1234V7.67767H40.9826V5.11165C40.9826 4.46183 41.1082 3.8459 41.3571 3.26385C41.6082 2.68266 41.9523 2.17351 42.3914 1.73724C42.8307 1.3014 43.3434 0.958696 43.9295 0.711045C44.5139 0.462754 45.1429 0.339142 45.8153 0.339142H48.6313Z" fill="#4A4A4A"/>
<path fill-rule="evenodd" clip-rule="evenodd" d="M64.3164 5.4712V18.3015H60.9319V11.8698C60.9319 11.3722 60.837 10.9095 60.6471 10.4805C60.4572 10.0515 60.1953 9.67509 59.8601 9.34837C59.5232 9.0225 59.1358 8.76973 58.6967 8.59007C58.2576 8.40934 57.7968 8.3194 57.3148 8.3194C56.8145 8.3194 56.3486 8.41381 55.9183 8.60243C55.488 8.79211 55.1044 9.04488 54.7692 9.36243C54.4323 9.68042 54.1707 10.0576 53.9805 10.4956C53.7906 10.9334 53.6972 11.4008 53.6972 11.8993C53.6972 12.3799 53.7906 12.8355 53.9805 13.2645C54.1707 13.6936 54.4323 14.071 54.7692 14.3975C55.1044 14.7234 55.488 14.9815 55.9183 15.1701C56.3486 15.3589 56.8145 15.4531 57.3148 15.4531C57.847 15.4531 58.3041 15.3589 58.6842 15.1712H58.7093V15.2217L60.0018 17.5057L59.9749 17.5315C59.1306 18.1822 58.0891 18.507 56.8486 18.507C55.9361 18.507 55.074 18.3352 54.2655 17.9934C53.4553 17.6517 52.749 17.1807 52.1468 16.5818C51.5425 15.9838 51.0641 15.2824 50.7126 14.4776C50.3578 13.674 50.1823 12.8187 50.1823 11.9116C50.1823 10.9877 50.3578 10.1244 50.7126 9.31981C51.0641 8.51611 51.5425 7.81472 52.1468 7.21584C52.749 6.6176 53.4553 6.14233 54.2655 5.79153C55.074 5.44094 55.9361 5.26553 56.8486 5.26553C57.7449 5.26553 58.5282 5.43113 59.2004 5.76233C59.8728 6.09246 60.4499 6.5722 60.9319 7.19964V5.4712H64.3164Z" fill="#4A4A4A"/>
<path fill-rule="evenodd" clip-rule="evenodd" d="M80.6484 5.2655C81.4571 5.2655 82.1417 5.42407 82.7027 5.73992C83.262 6.05684 83.7138 6.47158 84.0598 6.98521C84.404 7.49777 84.6529 8.07555 84.8092 8.71727C84.9631 9.35899 85.0403 10.0041 85.0403 10.6539V18.3015H81.6039L81.6307 10.6343C81.6307 10.3594 81.5788 10.103 81.4749 9.86261C81.3708 9.62242 81.2292 9.40801 81.0483 9.21918C80.8674 9.03057 80.6521 8.8801 80.4027 8.76885C80.152 8.6576 79.8902 8.60155 79.6142 8.60155C79.0459 8.60155 78.5637 8.80359 78.1675 9.20576C77.7715 9.60984 77.5724 10.0851 77.5724 10.6343V18.3015H74.1359V10.6343C74.1359 10.3594 74.084 10.103 73.9821 9.86261C73.878 9.62242 73.731 9.40801 73.5427 9.21918C73.3528 9.03057 73.1324 8.88458 72.883 8.78121C72.6339 8.67891 72.3525 8.62734 72.0441 8.62734C72.0263 8.62734 71.9492 8.5001 71.811 8.24542C71.6732 7.99094 71.5172 7.71047 71.3449 7.40442C71.1552 7.04829 70.9238 6.6408 70.6476 6.18237L70.6729 6.13143C71.4151 5.55386 72.2323 5.2655 73.1288 5.2655C74.093 5.2655 74.8764 5.4782 75.4805 5.90189C76.0829 6.32644 76.5471 6.85243 76.8751 7.48094C76.9431 7.36244 77.0133 7.26014 77.0813 7.17553C77.5636 6.54724 78.1121 6.07197 78.7231 5.74972C79.3346 5.42748 79.9763 5.2655 80.6484 5.2655V5.2655ZM66.6431 18.3015H70.0795V5.47121H66.6431V18.3015Z" fill="#4A4A4A"/>
<mask id="mask0" mask-type="alpha" maskUnits="userSpaceOnUse" x="86" y="5" width="15" height="14">
<path fill-rule="evenodd" clip-rule="evenodd" d="M86.849 5.2655H100.234V18.507H86.849V5.2655Z" fill="white"/>
</mask>
<g mask="url(#mask0)">
<path fill-rule="evenodd" clip-rule="evenodd" d="M93.5675 5.2655C94.4801 5.2655 95.3424 5.4409 96.1526 5.7915C96.961 6.1423 97.6673 6.61757 98.2712 7.2156C98.8737 7.81469 99.3523 8.51608 99.7053 9.31978C100.058 10.1243 100.234 10.9877 100.234 11.9116C100.234 12.4084 100.182 12.8871 100.08 13.3491L100.053 13.3998H93.4905L91.836 10.7831H96.746C96.5039 10.0638 96.1041 9.47387 95.5448 9.01181C94.9838 8.54997 94.3258 8.31937 93.5675 8.31937C93.1033 8.31937 92.6623 8.41272 92.25 8.60048C91.836 8.78846 91.4793 9.03952 91.178 9.35452C90.8752 9.67037 90.6387 10.0453 90.4666 10.4805C90.2944 10.9148 90.2084 11.3873 90.2084 11.899C90.2084 12.2907 90.2854 12.6957 90.4414 13.1132C90.5953 13.5316 90.8196 13.9107 91.1134 14.2517C91.4057 14.5925 91.7587 14.8772 92.173 15.1078C92.5852 15.3384 93.0514 15.4531 93.5675 15.4531C94.0337 15.4531 94.4584 15.3889 94.8475 15.2608C95.2347 15.1319 95.6004 14.8461 95.9444 14.4011L95.9714 14.3753L96.0217 14.4011L99.0205 15.7114L98.9685 15.7638C98.3483 16.6263 97.5598 17.2992 96.6041 17.7823C95.6469 18.2648 94.6361 18.507 93.5675 18.507C92.6372 18.507 91.7624 18.3352 90.9449 17.9933C90.126 17.6517 89.416 17.1807 88.8138 16.5818C88.2094 15.9838 87.7311 15.2824 87.3795 14.4776C87.0248 13.6739 86.849 12.8186 86.849 11.9116C86.849 10.9877 87.0248 10.1243 87.3795 9.31978C87.7311 8.51608 88.2094 7.81469 88.8138 7.2156C89.416 6.61757 90.126 6.1423 90.9449 5.7915C91.7624 5.4409 92.6372 5.2655 93.5675 5.2655" fill="#4A4A4A"/>
</g>
<path fill-rule="evenodd" clip-rule="evenodd" d="M22.4934 4.52884L21.5508 2.55573C21.5508 2.55573 20.0551 2.84579 18.7808 4.52436C18.7808 4.52436 20.6569 2.96876 22.4934 4.52884" fill="#67A868"/>
<path fill-rule="evenodd" clip-rule="evenodd" d="M18.439 2.24586L19.5084 3.03591C19.5084 3.03591 20.5516 2.02634 23.8043 1.86841C23.8043 1.86841 22.6287 1.61394 21.188 1.6928L20.6398 0.499084L19.9859 1.84198C19.9859 1.84198 19.2521 1.85967 18.439 2.24586" fill="#67A868"/>
</svg>
